<svg viewBox="0 0 1033.18 435.89" xmlns="http://www.w3.org/2000/svg"><path d="m170.25 83.8h125.24v113.36h-125.24z" fill="#ff0080"/><path d="m363.27 282.47h125.57v143.31h-125.57z" fill="#ff0080"/><g fill="#fff"><path d="m28.18 254.1h-28.18v-182.44h98.64a40.43 40.43 0 0 1 30 12.54 41.82 41.82 0 0 1 12.33 30.45 41.82 41.82 0 0 1 -12.33 30.45 40.39 40.39 0 0 1 -29.95 12.54h-35.28v-28.64h35.23a13.51 13.51 0 0 0 10-4.14 14.77 14.77 0 0 0 0-20.38 13.51 13.51 0 0 0 -10-4.14h-70.46z"/><path d="m295.49 71.66v28.66h-112.74v86h112.74v28.68h-140.92v-143.34zm50.93 86h-144.51v-28.66h144.51z"/><path d="m388.25 129v143.29h-28.18v-200.63h28.18l56.37 107.48 56.38-107.48h28.18v143.34h-28.18v-86l-42.28 86h-28.19z"/><path d="m588.62 215h-28.18v-179.2h28.18z"/><path d="m648.07 186.31h112.74v28.69h-140.92v-138.6h28.18z"/><path d="m754.42 143.31v-71.65h28.19v71.65a41.78 41.78 0 0 0 12.33 30.46 42 42 0 0 0 59.89 0 41.82 41.82 0 0 0 12.33-30.46v-143.31h28.18v143.31q0 29.79-20.59 50.72t-49.87 20.97q-29.28 0-49.88-21t-20.58-50.69z"/><path d="m388.25 368.46v57.33h-28.18v-196.46h28.18v110.47h84.55v-57.33h28.2v143.32h-28.2v-57.33z"/><path d="m560.44 306.06v119.73h-28.19v-177h28.19l56.37 107.48 56.36-107.48h28.19v177h-28.19v-119.73l-42.27 86h-28.19z"/><path d="m873.54 282.47v28.67h-112.73v124.75h-28.19v-153.42zm10.32 86h-105.44v-28.67h105.44z"/><path d="m976.81 311.14v114.65h-28.18v-114.65h-56.37v-28.67h140.92v28.67z"/></g></svg>