<?xml version="1.0" encoding="UTF-8" standalone="no"?>
<svg
   xmlns:dc="http://purl.org/dc/elements/1.1/"
   xmlns:cc="http://creativecommons.org/ns#"
   xmlns:rdf="http://www.w3.org/1999/02/22-rdf-syntax-ns#"
   xmlns:svg="http://www.w3.org/2000/svg"
   xmlns="http://www.w3.org/2000/svg"
   xmlns:sodipodi="http://sodipodi.sourceforge.net/DTD/sodipodi-0.dtd"
   xmlns:inkscape="http://www.inkscape.org/namespaces/inkscape"
   version="1.1"
   id="svg2"
   xml:space="preserve"
   width="1923.48"
   height="1436.4133"
   viewBox="0 0 1923.48 1436.4133"
   sodipodi:docname="Squid Game Front Man Mask.ai"><metadata
     id="metadata8"><rdf:RDF><cc:Work
         rdf:about=""><dc:format>image/svg+xml</dc:format><dc:type
           rdf:resource="http://purl.org/dc/dcmitype/StillImage" /></cc:Work></rdf:RDF></metadata><defs
     id="defs6"><clipPath
       clipPathUnits="userSpaceOnUse"
       id="clipPath22"><path
         d="M 0,1077.309 H 1442.614 V 0 H 0 Z"
         id="path20" /></clipPath></defs><sodipodi:namedview
     pagecolor="#ffffff"
     bordercolor="#666666"
     borderopacity="1"
     objecttolerance="10"
     gridtolerance="10"
     guidetolerance="10"
     inkscape:pageopacity="0"
     inkscape:pageshadow="2"
     inkscape:window-width="640"
     inkscape:window-height="480"
     id="namedview4" /><g
     id="g10"
     inkscape:groupmode="layer"
     inkscape:label="Squid Game Front Man Mask"
     transform="matrix(1.3333333,0,0,-1.3333333,0,1436.4133)"><g
       id="g12"
       transform="translate(512.4427,813.4046)"><path
         d="M 0,0 -39.018,-85.574 106.968,2.106 Z"
         style="fill:#3f4045;fill-opacity:1;fill-rule:nonzero;stroke:none"
         id="path14" /></g><g
       id="g16"><g
         id="g18"
         clip-path="url(#clipPath22)"><g
           id="g24"
           transform="translate(615.4203,815.5106)"><path
             d="m 0,0 30.926,-53.096 h 91.781 V -1.219 C 122.707,-1.219 0.665,-0.665 0,0"
             style="fill:#50555f;fill-opacity:1;fill-rule:nonzero;stroke:none"
             id="path26" /></g><g
           id="g28"
           transform="translate(522.8588,684.0809)"><path
             d="m 0,0 -19.99,-24.705 5.28,-13.39 42.204,-20.134 68.281,-7.538 33.476,18.622 7.099,13.765 -31.041,18.824 z"
             style="fill:#3c1721;fill-opacity:1;fill-rule:nonzero;stroke:none"
             id="path30" /></g><g
           id="g32"
           transform="translate(739.014,953.0716)"><path
             d="M 0,0 -70.055,-18.179 -1.219,-83.024 Z"
             style="fill:#4c5259;fill-opacity:1;fill-rule:nonzero;stroke:none"
             id="path34" /></g><g
           id="g36"
           transform="translate(668.9594,934.8929)"><path
             d="m 0,0 -64.292,-3.991 6.651,-58.527 126.809,-1.33 z"
             style="fill:#565b65;fill-opacity:1;fill-rule:nonzero;stroke:none"
             id="path38" /></g><g
           id="g40"
           transform="translate(604.6674,930.9022)"><path
             d="m 0,0 -92.225,-45.226 v -72.272 l 98.876,58.971 z"
             style="fill:#473335;fill-opacity:1;fill-rule:nonzero;stroke:none"
             id="path42" /></g><g
           id="g44"
           transform="translate(611.3187,872.3748)"><path
             d="m 0,0 c 0,0 2.771,-58.305 4.102,-57.862 1.33,0.444 122.707,-0.221 122.707,-0.221 V -1.33 C 126.809,-1.33 0,0.443 0,0"
             style="fill:#2d2e32;fill-opacity:1;fill-rule:nonzero;stroke:none"
             id="path46" /></g><g
           id="g48"
           transform="translate(512.4427,813.4046)"><path
             d="m 0,0 98.876,58.97 4.877,-59.413 z"
             style="fill:#222222;fill-opacity:1;fill-rule:nonzero;stroke:none"
             id="path50" /></g><g
           id="g52"
           transform="translate(512.4427,885.6766)"><path
             d="m 0,0 -63.959,-62.518 19.288,-55.534 46.223,43.23 z"
             style="fill:#38342e;fill-opacity:1;fill-rule:nonzero;stroke:none"
             id="path54" /></g><g
           id="g56"
           transform="translate(473.4252,727.8304)"><path
             d="M 0,0 142.327,88.013 172.921,34.584 Z"
             style="fill:#484c52;fill-opacity:1;fill-rule:nonzero;stroke:none"
             id="path58" /></g><g
           id="g60"
           transform="translate(646.3461,762.4149)"><path
             d="M 0,0 47.886,-63.405 H 92.225 V 0 C 92.225,0 0,0.443 0,0"
             style="fill:#1b1b1b;fill-opacity:1;fill-rule:nonzero;stroke:none"
             id="path62" /></g><g
           id="g64"
           transform="translate(693.1234,700.784)"><path
             d="m 0,0 32.146,-47.886 h 13.301 v 46.112 c 0,0 -45.89,1.331 -45.447,1.774"
             style="fill:#36373c;fill-opacity:1;fill-rule:nonzero;stroke:none"
             id="path66" /></g><g
           id="g68"
           transform="translate(738.5707,652.8978)"><path
             d="m 0,0 h -13.302 l -5.763,-140.554 H -0.443 C -0.443,-140.554 0,-0.443 0,0"
             style="fill:#4c5560;fill-opacity:1;fill-rule:nonzero;stroke:none"
             id="path70" /></g><g
           id="g72"
           transform="translate(719.5052,512.3441)"><path
             d="M 0,0 C -0.443,-0.887 -65.178,-43.674 -65.178,-43.674 L -30.15,129.469 5.764,140.554 Z"
             style="fill:#33322c;fill-opacity:1;fill-rule:nonzero;stroke:none"
             id="path74" /></g><g
           id="g76"
           transform="translate(653.764,469.3841)"><path
             d="m 0,0 55.1,-46.604 8.424,36.357 2.217,53.207 z"
             style="fill:#181711;fill-opacity:1;fill-rule:nonzero;stroke:none"
             id="path78" /></g><g
           id="g80"
           transform="translate(655.2142,468.8919)"><path
             d="M 0,0 53.206,-45.226 52.763,-71.829 -19.066,-83.801 Z"
             style="fill:#4a4e56;fill-opacity:1;fill-rule:nonzero;stroke:none"
             id="path82" /></g><g
           id="g84"
           transform="translate(708.4203,423.6663)"><path
             d="m 0,0 29.707,-3.104 v -39.018 l -30.15,15.518 z"
             style="fill:#242a31;fill-opacity:1;fill-rule:nonzero;stroke:none"
             id="path86" /></g><g
           id="g88"
           transform="translate(738.1273,381.5443)"><path
             d="M 0,0 -30.15,15.519 -101.979,3.547 -140,-62.518 l 37.134,33.254 58.084,11.085 44.339,-14.188 z"
             style="fill:#070201;fill-opacity:1;fill-rule:nonzero;stroke:none"
             id="path90" /></g><g
           id="g92"
           transform="translate(737.684,349.1771)"><path
             d="m 0,0 0.887,-30.15 -65.621,11.085 -37.689,22.169 58.084,11.084 z"
             style="fill:#4e5458;fill-opacity:1;fill-rule:nonzero;stroke:none"
             id="path94" /></g><g
           id="g96"
           transform="translate(672.9496,330.1116)"><path
             d="m 0,0 -25.273,-47.442 h 90.894 v 36.357 z"
             style="fill:#010101;fill-opacity:1;fill-rule:nonzero;stroke:none"
             id="path98" /></g><g
           id="g100"
           transform="translate(598.4603,320.8001)"><path
             d="M 0,0 C 0.443,1.773 36.801,31.48 36.801,31.48 L 74.489,9.312 Z"
             style="fill:#1f1e1c;fill-opacity:1;fill-rule:nonzero;stroke:none"
             id="path102" /></g><g
           id="g104"
           transform="translate(598.4603,320.8001)"><path
             d="M 0,0 49.216,-38.131 74.489,9.312 Z"
             style="fill:#191816;fill-opacity:1;fill-rule:nonzero;stroke:none"
             id="path106" /></g><g
           id="g108"
           transform="translate(598.4603,320.8001)"><path
             d="M 0,0 -3.104,-62.074 84.244,-92.225 49.216,-38.131 Z"
             style="fill:#2d2d2f;fill-opacity:1;fill-rule:nonzero;stroke:none"
             id="path110" /></g><g
           id="g112"
           transform="translate(738.5707,282.6693)"><path
             d="M 0,0 V -53.207 L -56.367,-53.858 -90.895,0 Z"
             style="fill:#434950;fill-opacity:1;fill-rule:nonzero;stroke:none"
             id="path114" /></g><g
           id="g116"
           transform="translate(738.5707,229.4622)"><path
             d="m 0,0 c 0,0 4.877,-100.649 0,-100.649 -4.877,0 -66.951,3.991 -66.951,3.991 l 5.32,36.357 L -55.866,0 Z"
             style="fill:#0a0a08;fill-opacity:1;fill-rule:nonzero;stroke:none"
             id="path118" /></g><g
           id="g120"
           transform="translate(682.7045,229.4622)"><path
             d="m 0,0 -69.612,-21.282 64.18,-40.46 z"
             style="fill:#1a1917;fill-opacity:1;fill-rule:nonzero;stroke:none"
             id="path122" /></g><g
           id="g124"
           transform="translate(676.9398,169.1615)"><path
             d="m 0,0 -5.32,-36.357 -97.546,76.706 c 0,0 -77.593,79.809 -83.357,91.781 l 3.104,69.611 53.096,11.64 -4.545,-106.635 L 7.76,60.634 -63.848,39.019 Z"
             style="fill:#130b02;fill-opacity:1;fill-rule:nonzero;stroke:none"
             id="path126" /></g><g
           id="g128"
           transform="translate(598.4603,320.8001)"><path
             d="m 0,0 c 0,0 2.438,-62.851 -0.665,-64.624 -3.104,-1.773 -61.409,20.285 -61.409,20.285 z"
             style="fill:#211c19;fill-opacity:1;fill-rule:nonzero;stroke:none"
             id="path130" /></g><g
           id="g132"
           transform="translate(655.2142,468.8919)"><path
             d="m 0,0 -65.622,-69.612 46.556,-14.189 z"
             style="fill:#2d2c2a;fill-opacity:1;fill-rule:nonzero;stroke:none"
             id="path134" /></g><g
           id="g136"
           transform="translate(589.5922,399.2796)"><path
             d="m 0,0 10.198,-80.585 36.358,66.397 z"
             style="fill:#231f17;fill-opacity:1;fill-rule:nonzero;stroke:none"
             id="path138" /></g><g
           id="g140"
           transform="translate(600.7885,321.6868)"><path
             d="M 0,0 -7.981,77.149 -83.024,216.374 -55.535,62.518 -60.412,-46.112 Z"
             style="fill:#191917;fill-opacity:1;fill-rule:nonzero;stroke:none"
             id="path142" /></g><g
           id="g144"
           transform="translate(517.764,538.0604)"><path
             d="M 0,0 137.45,-69.168 72.383,-141.551 Z"
             style="fill:#1e1e1e;fill-opacity:1;fill-rule:nonzero;stroke:none"
             id="path146" /></g><g
           id="g148"
           transform="translate(517.764,538.0604)"><path
             d="M 0,0 90.895,23.943 137.45,-69.168 Z"
             style="fill:#4f4e57;fill-opacity:1;fill-rule:nonzero;stroke:none"
             id="path150" /></g><g
           id="g152"
           transform="translate(517.764,538.0604)"><path
             d="M 0,0 104.64,66.065 135.676,-65.622 90.895,23.943 Z"
             style="fill:#292327;fill-opacity:1;fill-rule:nonzero;stroke:none"
             id="path154" /></g><g
           id="g156"
           transform="translate(622.4037,604.1253)"><path
             d="M 0,0 49.659,33.697 66.951,37.688 31.999,-136.767 Z"
             style="fill:#3a3e46;fill-opacity:1;fill-rule:nonzero;stroke:none"
             id="path158" /></g><g
           id="g160"
           transform="translate(622.4037,604.1253)"><path
             d="m 0,0 -104.64,-66.065 23.499,79.367 z"
             style="fill:#323136;fill-opacity:1;fill-rule:nonzero;stroke:none"
             id="path162" /></g><g
           id="g164"
           transform="translate(541.2631,617.4271)"><path
             d="m 0,0 -35.027,16.405 -9.755,22.613 -47.443,0.443 68.726,-118.828 z"
             style="fill:#282826;fill-opacity:1;fill-rule:nonzero;stroke:none"
             id="path166" /></g><g
           id="g168"
           transform="translate(694.2318,699.0101)"><path
             d="M 0,0 31.037,-46.112 -4.877,-57.197 Z"
             style="fill:#131104;fill-opacity:1;fill-rule:nonzero;stroke:none"
             id="path170" /></g><g
           id="g172"
           transform="translate(622.4037,604.1253)"><path
             d="M 0,0 49.659,33.697 66.951,37.688 71.828,94.885 18.289,79.366 46.556,46.556 35.027,32.811 -0.888,8.868 -75.82,16.405 -109.074,35.028 -119.535,31.3 -81.141,13.302 Z"
             style="fill:#010101;fill-opacity:1;fill-rule:nonzero;stroke:none"
             id="path174" /></g><g
           id="g176"
           transform="translate(496.4809,656.4451)"><path
             d="M 0,0 C 0,-1.33 -47.442,0.443 -47.442,0.443 L -23.056,71.385 149.865,105.97 28.82,36.025 26.603,35.471 Z"
             style="fill:#000000;fill-opacity:1;fill-rule:nonzero;stroke:none"
             id="path178" /></g><g
           id="g180"
           transform="translate(646.3461,762.4149)"><path
             d="M 0,0 47.886,-63.405 -6.207,-79.81 -123.262,-70.499 Z"
             style="fill:#0f0e0c;fill-opacity:1;fill-rule:nonzero;stroke:none"
             id="path182" /></g><g
           id="g184"
           transform="translate(449.4818,823.6024)"><path
             d="m 0,0 -13.745,-77.593 32.81,22.17 z"
             style="fill:#231f20;fill-opacity:1;fill-rule:nonzero;stroke:none"
             id="path186" /></g><g
           id="g188"
           transform="translate(435.7367,746.0096)"><path
             d="m 0,0 -7.537,-104.64 4.433,-58.084 16.406,73.603 L 74.933,64.291 32.811,22.169 Z"
             style="fill:#3e352e;fill-opacity:1;fill-rule:nonzero;stroke:none"
             id="path190" /></g><g
           id="g192"
           transform="translate(449.0385,656.8885)"><path
             d="m 0,0 -16.517,-74.489 63.516,-66.065 c 0,0 -33.254,-46.999 -37.687,-46.113 -4.435,0.887 87.901,-89.009 87.901,-89.009 l -28.487,156.848 z"
             style="fill:#1c170d;fill-opacity:1;fill-rule:nonzero;stroke:none"
             id="path194" /></g><g
           id="g196"
           transform="translate(432.6332,583.2859)"><path
             d="m 0,0 26.492,-114.616 39.905,48.219 z"
             style="fill:#27211a;fill-opacity:1;fill-rule:nonzero;stroke:none"
             id="path198" /></g><g
           id="g200"
           transform="translate(458.7934,469.6683)"><path
             d="m 0,0 31.924,-168.377 3.103,69.611 z"
             style="fill:#252119;fill-opacity:1;fill-rule:nonzero;stroke:none"
             id="path202" /></g><g
           id="g204"
           transform="translate(458.4604,470.9984)"><path
             d="m 0,0 35.249,-101.426 53.54,11.972 z"
             style="fill:#2e2d29;fill-opacity:1;fill-rule:nonzero;stroke:none"
             id="path206" /></g><g
           id="g208"
           transform="translate(668.9594,650.681)"><path
             d="m 0,0 -26.913,32.834 -118.962,8.401 -26.603,-35.471 8.203,-21.061 8.645,3.769 33.254,-18.622 72.938,-8.646 41.457,25.051 8.225,14.142 -12.659,-2.17 -4.435,-10.42 -33.475,-20.174 -65.979,7.681 -37.331,17.148 -5.985,3.548 -5.099,11.971 18.401,24.83 109.073,-11.528 25.23,-24.092 z"
             style="fill:#565759;fill-opacity:1;fill-rule:nonzero;stroke:none"
             id="path210" /></g><g
           id="g212"
           transform="translate(504.2406,658.6619)"><path
             d="m 0,0 3.769,-3.104 18.622,25.052 101.536,-11.085 22.39,-20.839 4.435,3.103 L 127.474,13.302 18.4,24.83 C 18.4,24.83 1.108,-0.222 0,0"
             style="fill:#0f0e0c;fill-opacity:1;fill-rule:nonzero;stroke:none"
             id="path214" /></g><g
           id="g216"
           transform="translate(529.2914,677.9495)"><path
             d="m 0,0 -1.33,-9.755 6.873,-0.443 1.33,9.311 z"
             style="fill:#821e40;fill-opacity:1;fill-rule:nonzero;stroke:none"
             id="path218" /></g><g
           id="g220"
           transform="translate(528.6263,663.3177)"><path
             d="m 0,0 -1.33,-9.755 6.873,-0.443 1.33,9.311 z"
             style="fill:#821e40;fill-opacity:1;fill-rule:nonzero;stroke:none"
             id="path222" /></g><g
           id="g224"
           transform="translate(541.0414,662.8743)"><path
             d="m 0,0 -1.33,-9.755 6.872,-0.443 1.331,9.311 z"
             style="fill:#821e40;fill-opacity:1;fill-rule:nonzero;stroke:none"
             id="path226" /></g><g
           id="g228"
           transform="translate(553.2347,660.8787)"><path
             d="m 0,0 -1.33,-9.754 6.872,-0.444 1.33,9.311 z"
             style="fill:#821e40;fill-opacity:1;fill-rule:nonzero;stroke:none"
             id="path230" /></g><g
           id="g232"
           transform="translate(565.4281,659.992)"><path
             d="m 0,0 -1.33,-9.754 6.872,-0.444 1.33,9.311 z"
             style="fill:#821e40;fill-opacity:1;fill-rule:nonzero;stroke:none"
             id="path234" /></g><g
           id="g236"
           transform="translate(578.0648,659.327)"><path
             d="m 0,0 -1.331,-9.754 6.873,-0.444 1.33,9.311 z"
             style="fill:#821e40;fill-opacity:1;fill-rule:nonzero;stroke:none"
             id="path238" /></g><g
           id="g240"
           transform="translate(591.3656,657.7752)"><path
             d="m 0,0 -1.33,-9.754 6.873,-0.444 1.33,9.311 z"
             style="fill:#821e40;fill-opacity:1;fill-rule:nonzero;stroke:none"
             id="path242" /></g><g
           id="g244"
           transform="translate(602.4506,657.7752)"><path
             d="m 0,0 -1.33,-9.754 6.873,-0.444 1.33,9.311 z"
             style="fill:#821e40;fill-opacity:1;fill-rule:nonzero;stroke:none"
             id="path246" /></g><g
           id="g248"
           transform="translate(615.7523,656.4451)"><path
             d="m 0,0 -1.33,-9.754 6.872,-0.444 1.331,9.311 z"
             style="fill:#821e40;fill-opacity:1;fill-rule:nonzero;stroke:none"
             id="path250" /></g><g
           id="g252"
           transform="translate(627.5023,655.3367)"><path
             d="m 0,0 -1.33,-9.755 6.872,-0.443 1.33,9.311 z"
             style="fill:#821e40;fill-opacity:1;fill-rule:nonzero;stroke:none"
             id="path254" /></g><g
           id="g256"
           transform="translate(539.2679,649.3509)"><path
             d="m 0,0 -1.33,-6.786 6.872,-0.308 1.33,6.477 z"
             style="fill:#821e40;fill-opacity:1;fill-rule:nonzero;stroke:none"
             id="path258" /></g><g
           id="g260"
           transform="translate(552.1263,647.3558)"><path
             d="m 0,0 -1.33,-6.786 6.872,-0.308 1.33,6.477 z"
             style="fill:#821e40;fill-opacity:1;fill-rule:nonzero;stroke:none"
             id="path262" /></g><g
           id="g264"
           transform="translate(564.5414,645.8035)"><path
             d="m 0,0 -1.33,-6.786 6.872,-0.308 1.33,6.477 z"
             style="fill:#821e40;fill-opacity:1;fill-rule:nonzero;stroke:none"
             id="path266" /></g><g
           id="g268"
           transform="translate(577.8431,644.4734)"><path
             d="m 0,0 -1.331,-6.786 6.873,-0.308 1.33,6.477 z"
             style="fill:#821e40;fill-opacity:1;fill-rule:nonzero;stroke:none"
             id="path270" /></g><g
           id="g272"
           transform="translate(589.5922,643.8084)"><path
             d="m 0,0 -1.33,-6.786 6.873,-0.308 1.33,6.477 z"
             style="fill:#821e40;fill-opacity:1;fill-rule:nonzero;stroke:none"
             id="path274" /></g><g
           id="g276"
           transform="translate(602.0072,642.4783)"><path
             d="m 0,0 -1.33,-6.786 6.873,-0.308 1.33,6.477 z"
             style="fill:#821e40;fill-opacity:1;fill-rule:nonzero;stroke:none"
             id="path278" /></g><g
           id="g280"
           transform="translate(613.5355,641.8133)"><path
             d="m 0,0 -1.33,-6.786 6.872,-0.308 1.33,6.477 z"
             style="fill:#821e40;fill-opacity:1;fill-rule:nonzero;stroke:none"
             id="path282" /></g><g
           id="g284"
           transform="translate(625.7289,640.7049)"><path
             d="m 0,0 -1.33,-6.786 6.872,-0.308 1.33,6.477 z"
             style="fill:#821e40;fill-opacity:1;fill-rule:nonzero;stroke:none"
             id="path286" /></g><g
           id="g288"
           transform="translate(637.2562,655.3367)"><path
             d="m 0,0 -1.33,-6.786 6.873,-0.308 1.33,6.477 z"
             style="fill:#821e40;fill-opacity:1;fill-rule:nonzero;stroke:none"
             id="path290" /></g><g
           id="g292"
           transform="translate(646.7894,648.2425)"><path
             d="m 0,0 -1.33,-6.786 6.872,-0.308 1.331,6.477 z"
             style="fill:#821e40;fill-opacity:1;fill-rule:nonzero;stroke:none"
             id="path294" /></g><g
           id="g296"
           transform="translate(636.3695,640.9266)"><path
             d="m 0,0 -1.33,-6.786 6.873,-0.308 1.33,6.477 z"
             style="fill:#821e40;fill-opacity:1;fill-rule:nonzero;stroke:none"
             id="path298" /></g><g
           id="g300"
           transform="translate(616.1957,628.5115)"><path
             d="m 0,0 -0.222,-7.316 6.652,1.108 v 5.1 z"
             style="fill:#821e40;fill-opacity:1;fill-rule:nonzero;stroke:none"
             id="path302" /></g><g
           id="g304"
           transform="translate(605.7758,629.6199)"><path
             d="m 0,0 -0.222,-7.316 6.652,1.108 v 5.1 z"
             style="fill:#821e40;fill-opacity:1;fill-rule:nonzero;stroke:none"
             id="path306" /></g><g
           id="g308"
           transform="translate(593.8051,630.7283)"><path
             d="m 0,0 -0.222,-7.316 6.651,1.109 v 5.099 z"
             style="fill:#821e40;fill-opacity:1;fill-rule:nonzero;stroke:none"
             id="path310" /></g><g
           id="g312"
           transform="translate(583.3851,631.1717)"><path
             d="m 0,0 -0.222,-7.316 6.651,1.109 v 5.099 z"
             style="fill:#821e40;fill-opacity:1;fill-rule:nonzero;stroke:none"
             id="path314" /></g><g
           id="g316"
           transform="translate(571.8568,633.1673)"><path
             d="m 0,0 -0.222,-7.316 6.652,1.108 v 5.1 z"
             style="fill:#821e40;fill-opacity:1;fill-rule:nonzero;stroke:none"
             id="path318" /></g><g
           id="g320"
           transform="translate(556.5599,634.4974)"><path
             d="m 0,0 -0.222,-7.316 6.652,1.108 v 5.1 z"
             style="fill:#821e40;fill-opacity:1;fill-rule:nonzero;stroke:none"
             id="path322" /></g><g
           id="g324"
           transform="translate(546.14,636.4925)"><path
             d="m 0,0 -0.222,-7.316 6.652,1.108 v 5.1 z"
             style="fill:#821e40;fill-opacity:1;fill-rule:nonzero;stroke:none"
             id="path326" /></g><g
           id="g328"
           transform="translate(541.4847,677.0628)"><path
             d="m 0,0 -1.33,-9.755 6.872,-0.443 1.331,9.311 z"
             style="fill:#821e40;fill-opacity:1;fill-rule:nonzero;stroke:none"
             id="path330" /></g><g
           id="g332"
           transform="translate(554.7865,675.5106)"><path
             d="m 0,0 -1.33,-9.754 6.872,-0.444 1.33,9.311 z"
             style="fill:#821e40;fill-opacity:1;fill-rule:nonzero;stroke:none"
             id="path334" /></g><g
           id="g336"
           transform="translate(567.4232,674.1805)"><path
             d="m 0,0 -1.33,-9.754 6.872,-0.444 1.33,9.311 z"
             style="fill:#821e40;fill-opacity:1;fill-rule:nonzero;stroke:none"
             id="path338" /></g><g
           id="g340"
           transform="translate(581.1683,673.0721)"><path
             d="m 0,0 -1.33,-9.754 6.872,-0.444 1.33,9.311 z"
             style="fill:#821e40;fill-opacity:1;fill-rule:nonzero;stroke:none"
             id="path342" /></g><g
           id="g344"
           transform="translate(593.8051,671.742)"><path
             d="m 0,0 -1.33,-9.754 6.872,-0.444 1.33,9.311 z"
             style="fill:#821e40;fill-opacity:1;fill-rule:nonzero;stroke:none"
             id="path346" /></g><g
           id="g348"
           transform="translate(605.1107,671.2986)"><path
             d="m 0,0 -1.33,-9.755 6.873,-0.443 1.33,9.311 z"
             style="fill:#821e40;fill-opacity:1;fill-rule:nonzero;stroke:none"
             id="path350" /></g><g
           id="g352"
           transform="translate(616.1957,669.7469)"><path
             d="m 0,0 -1.33,-9.755 6.872,-0.443 1.331,9.311 z"
             style="fill:#821e40;fill-opacity:1;fill-rule:nonzero;stroke:none"
             id="path354" /></g><g
           id="g356"
           transform="translate(738.1273,512.3441)"><path
             d="m 0,0 v -91.781 l -29.707,3.103 7.316,32.257 3.141,56.621 z"
             style="fill:#020001;fill-opacity:1;fill-rule:nonzero;stroke:none"
             id="path358" /></g><g
           id="g360"
           transform="translate(963.098,813.4046)"><path
             d="M 0,0 39.018,-85.574 -106.968,2.106 Z"
             style="fill:#161c23;fill-opacity:1;fill-rule:nonzero;stroke:none"
             id="path362" /></g><g
           id="g364"
           transform="translate(860.1205,815.5106)"><path
             d="m 0,0 -30.926,-53.096 h -91.781 v 51.877 c 0,0 122.042,0.554 122.707,1.219"
             style="fill:#50555f;fill-opacity:1;fill-rule:nonzero;stroke:none"
             id="path366" /></g><g
           id="g368"
           transform="translate(952.682,684.0809)"><path
             d="m 0,0 19.99,-24.705 -5.28,-13.39 -42.204,-20.134 -68.281,-7.538 -33.477,18.622 -7.098,13.765 31.041,18.824 z"
             style="fill:#3c1721;fill-opacity:1;fill-rule:nonzero;stroke:none"
             id="path370" /></g><g
           id="g372"
           transform="translate(736.5267,953.0716)"><path
             d="M 0,0 70.055,-18.179 1.219,-83.024 Z"
             style="fill:#292f33;fill-opacity:1;fill-rule:nonzero;stroke:none"
             id="path374" /></g><g
           id="g376"
           transform="translate(806.5814,934.8929)"><path
             d="m 0,0 64.291,-3.991 -6.65,-58.527 -126.809,-1.33 z"
             style="fill:#565b65;fill-opacity:1;fill-rule:nonzero;stroke:none"
             id="path378" /></g><g
           id="g380"
           transform="translate(870.8724,930.9022)"><path
             d="m 0,0 92.226,-45.226 v -72.272 L -6.65,-58.527 Z"
             style="fill:#222222;fill-opacity:1;fill-rule:nonzero;stroke:none"
             id="path382" /></g><g
           id="g384"
           transform="translate(864.222,872.3748)"><path
             d="m 0,0 c 0,0 -2.771,-58.305 -4.102,-57.862 -1.33,0.444 -122.707,-0.221 -122.707,-0.221 V -1.33 C -126.809,-1.33 0,0.443 0,0"
             style="fill:#2d2e32;fill-opacity:1;fill-rule:nonzero;stroke:none"
             id="path386" /></g><g
           id="g388"
           transform="translate(963.098,813.4046)"><path
             d="m 0,0 -98.876,58.97 -4.877,-59.413 z"
             style="fill:#222222;fill-opacity:1;fill-rule:nonzero;stroke:none"
             id="path390" /></g><g
           id="g392"
           transform="translate(963.098,885.6766)"><path
             d="m 0,0 63.958,-62.518 -19.287,-55.534 -46.223,43.23 z"
             style="fill:#222222;fill-opacity:1;fill-rule:nonzero;stroke:none"
             id="path394" /></g><g
           id="g396"
           transform="translate(1002.1156,727.8304)"><path
             d="M 0,0 -142.327,88.013 -172.921,34.584 Z"
             style="fill:#1b2125;fill-opacity:1;fill-rule:nonzero;stroke:none"
             id="path398" /></g><g
           id="g400"
           transform="translate(829.1947,762.4149)"><path
             d="M 0,0 -47.886,-63.405 H -92.225 V 0 C -92.225,0 0,0.443 0,0"
             style="fill:#1b1b1b;fill-opacity:1;fill-rule:nonzero;stroke:none"
             id="path402" /></g><g
           id="g404"
           transform="translate(782.4174,700.784)"><path
             d="m 0,0 -32.146,-47.886 h -13.301 v 46.112 c 0,0 45.89,1.331 45.447,1.774"
             style="fill:#36373c;fill-opacity:1;fill-rule:nonzero;stroke:none"
             id="path406" /></g><g
           id="g408"
           transform="translate(736.9701,652.8978)"><path
             d="m 0,0 h 13.302 l 5.763,-140.554 H 0.443 C 0.443,-140.554 0,-0.443 0,0"
             style="fill:#4c5560;fill-opacity:1;fill-rule:nonzero;stroke:none"
             id="path410" /></g><g
           id="g412"
           transform="translate(756.0355,512.3441)"><path
             d="M 0,0 C 0.443,-0.887 65.178,-43.674 65.178,-43.674 L 30.15,129.469 -5.764,140.554 Z"
             style="fill:#33322c;fill-opacity:1;fill-rule:nonzero;stroke:none"
             id="path414" /></g><g
           id="g416"
           transform="translate(821.7767,469.3841)"><path
             d="m 0,0 -55.1,-46.604 -8.424,36.357 -2.217,53.207 z"
             style="fill:#181711;fill-opacity:1;fill-rule:nonzero;stroke:none"
             id="path418" /></g><g
           id="g420"
           transform="translate(820.3265,468.8919)"><path
             d="m 0,0 -53.206,-45.226 0.443,-26.603 71.828,-11.972 z"
             style="fill:#4a4e56;fill-opacity:1;fill-rule:nonzero;stroke:none"
             id="path422" /></g><g
           id="g424"
           transform="translate(767.1205,423.6663)"><path
             d="m 0,0 -29.707,-3.104 v -39.018 l 30.15,15.518 z"
             style="fill:#242a31;fill-opacity:1;fill-rule:nonzero;stroke:none"
             id="path426" /></g><g
           id="g428"
           transform="translate(737.4135,381.5443)"><path
             d="M 0,0 30.15,15.519 101.979,3.547 139.999,-62.518 102.865,-29.264 44.782,-18.179 0.443,-32.367 Z"
             style="fill:#070201;fill-opacity:1;fill-rule:nonzero;stroke:none"
             id="path430" /></g><g
           id="g432"
           transform="translate(737.8568,349.1771)"><path
             d="M 0,0 -0.887,-30.15 64.734,-19.065 102.422,3.104 44.339,14.188 Z"
             style="fill:#353e47;fill-opacity:1;fill-rule:nonzero;stroke:none"
             id="path434" /></g><g
           id="g436"
           transform="translate(802.5912,330.1116)"><path
             d="m 0,0 25.273,-47.442 h -90.894 v 36.357 z"
             style="fill:#010101;fill-opacity:1;fill-rule:nonzero;stroke:none"
             id="path438" /></g><g
           id="g440"
           transform="translate(877.0804,320.8001)"><path
             d="M 0,0 C -0.443,1.773 -36.802,31.48 -36.802,31.48 L -74.489,9.312 Z"
             style="fill:#1f1e1c;fill-opacity:1;fill-rule:nonzero;stroke:none"
             id="path442" /></g><g
           id="g444"
           transform="translate(877.0804,320.8001)"><path
             d="M 0,0 -49.216,-38.131 -74.489,9.312 Z"
             style="fill:#191816;fill-opacity:1;fill-rule:nonzero;stroke:none"
             id="path446" /></g><g
           id="g448"
           transform="translate(877.0804,320.8001)"><path
             d="m 0,0 3.104,-62.074 -87.348,-30.151 35.028,54.094 z"
             style="fill:#2d2d2f;fill-opacity:1;fill-rule:nonzero;stroke:none"
             id="path450" /></g><g
           id="g452"
           transform="translate(736.9701,282.6693)"><path
             d="M 0,0 V -53.207 L 56.367,-53.858 90.895,0 Z"
             style="fill:#3e444b;fill-opacity:1;fill-rule:nonzero;stroke:none"
             id="path454" /></g><g
           id="g456"
           transform="translate(736.9701,229.4622)"><path
             d="m 0,0 c 0,0 -4.878,-100.649 0,-100.649 4.877,0 66.951,3.991 66.951,3.991 L 61.631,-60.301 55.866,0 Z"
             style="fill:#0a0a08;fill-opacity:1;fill-rule:nonzero;stroke:none"
             id="path458" /></g><g
           id="g460"
           transform="translate(792.8363,229.4622)"><path
             d="M 0,0 69.612,-21.282 5.432,-61.742 Z"
             style="fill:#1a1917;fill-opacity:1;fill-rule:nonzero;stroke:none"
             id="path462" /></g><g
           id="g464"
           transform="translate(798.601,169.1615)"><path
             d="m 0,0 5.32,-36.357 97.546,76.706 c 0,0 77.593,79.809 83.357,91.781 l -3.104,69.611 -53.096,11.64 4.545,-106.635 L -7.76,60.634 63.848,39.019 Z"
             style="fill:#130b02;fill-opacity:1;fill-rule:nonzero;stroke:none"
             id="path466" /></g><g
           id="g468"
           transform="translate(877.0804,320.8001)"><path
             d="m 0,0 c 0,0 -2.438,-62.851 0.665,-64.624 3.104,-1.773 61.409,20.285 61.409,20.285 z"
             style="fill:#211c19;fill-opacity:1;fill-rule:nonzero;stroke:none"
             id="path470" /></g><g
           id="g472"
           transform="translate(820.3265,468.8919)"><path
             d="M 0,0 65.621,-69.612 19.065,-83.801 Z"
             style="fill:#2d2c2a;fill-opacity:1;fill-rule:nonzero;stroke:none"
             id="path474" /></g><g
           id="g476"
           transform="translate(885.9476,399.2796)"><path
             d="m 0,0 -10.197,-80.585 -36.359,66.397 z"
             style="fill:#231f17;fill-opacity:1;fill-rule:nonzero;stroke:none"
             id="path478" /></g><g
           id="g480"
           transform="translate(874.7523,321.6868)"><path
             d="M 0,0 7.981,77.149 83.024,216.374 55.534,62.518 60.412,-46.112 Z"
             style="fill:#191917;fill-opacity:1;fill-rule:nonzero;stroke:none"
             id="path482" /></g><g
           id="g484"
           transform="translate(957.7767,538.0604)"><path
             d="m 0,0 -137.45,-69.168 65.067,-72.383 z"
             style="fill:#1e1e1e;fill-opacity:1;fill-rule:nonzero;stroke:none"
             id="path486" /></g><g
           id="g488"
           transform="translate(957.7767,538.0604)"><path
             d="M 0,0 -90.895,23.943 -137.45,-69.168 Z"
             style="fill:#4f4e57;fill-opacity:1;fill-rule:nonzero;stroke:none"
             id="path490" /></g><g
           id="g492"
           transform="translate(957.7767,538.0604)"><path
             d="m 0,0 -104.64,66.065 -31.037,-131.687 44.782,89.565 z"
             style="fill:#292327;fill-opacity:1;fill-rule:nonzero;stroke:none"
             id="path494" /></g><g
           id="g496"
           transform="translate(853.1371,604.1253)"><path
             d="m 0,0 -49.659,33.697 -17.292,3.991 34.952,-174.455 z"
             style="fill:#41454d;fill-opacity:1;fill-rule:nonzero;stroke:none"
             id="path498" /></g><g
           id="g500"
           transform="translate(853.1371,604.1253)"><path
             d="M 0,0 104.64,-66.065 81.141,13.302 Z"
             style="fill:#323136;fill-opacity:1;fill-rule:nonzero;stroke:none"
             id="path502" /></g><g
           id="g504"
           transform="translate(934.2777,617.4271)"><path
             d="M 0,0 35.027,16.405 44.782,39.018 92.225,39.461 23.499,-79.367 Z"
             style="fill:#282826;fill-opacity:1;fill-rule:nonzero;stroke:none"
             id="path506" /></g><g
           id="g508"
           transform="translate(781.309,699.0101)"><path
             d="M 0,0 -31.037,-46.112 4.877,-57.197 Z"
             style="fill:#131104;fill-opacity:1;fill-rule:nonzero;stroke:none"
             id="path510" /></g><g
           id="g512"
           transform="translate(853.1371,604.1253)"><path
             d="M 0,0 -49.659,33.697 -66.951,37.688 -71.828,94.885 -18.289,79.366 -46.556,46.556 -35.027,32.811 0.887,8.868 75.819,16.405 109.074,35.028 119.535,31.3 81.141,13.302 Z"
             style="fill:#010101;fill-opacity:1;fill-rule:nonzero;stroke:none"
             id="path514" /></g><g
           id="g516"
           transform="translate(979.0599,656.4451)"><path
             d="M 0,0 C 0,-1.33 47.442,0.443 47.442,0.443 L 23.056,71.385 -149.865,105.97 -28.82,36.025 l 2.216,-0.554 z"
             style="fill:#000000;fill-opacity:1;fill-rule:nonzero;stroke:none"
             id="path518" /></g><g
           id="g520"
           transform="translate(829.1947,762.4149)"><path
             d="M 0,0 -47.886,-63.405 6.207,-79.81 123.262,-70.499 Z"
             style="fill:#0f0e0c;fill-opacity:1;fill-rule:nonzero;stroke:none"
             id="path522" /></g><g
           id="g524"
           transform="translate(1026.059,823.6024)"><path
             d="m 0,0 13.745,-77.593 -32.811,22.17 z"
             style="fill:#231f20;fill-opacity:1;fill-rule:nonzero;stroke:none"
             id="path526" /></g><g
           id="g528"
           transform="translate(1039.8041,746.0096)"><path
             d="M 0,0 7.537,-104.64 3.104,-162.724 -13.302,-89.121 -74.933,64.291 -32.812,22.169 Z"
             style="fill:#231f20;fill-opacity:1;fill-rule:nonzero;stroke:none"
             id="path530" /></g><g
           id="g532"
           transform="translate(1026.5023,656.8885)"><path
             d="m 0,0 16.516,-74.489 -63.515,-66.065 c 0,0 33.254,-46.999 37.687,-46.113 4.435,0.887 -87.901,-89.009 -87.901,-89.009 l 28.487,156.848 z"
             style="fill:#1c170d;fill-opacity:1;fill-rule:nonzero;stroke:none"
             id="path534" /></g><g
           id="g536"
           transform="translate(1042.9076,583.2859)"><path
             d="m 0,0 -26.492,-114.616 -39.905,48.219 z"
             style="fill:#27211a;fill-opacity:1;fill-rule:nonzero;stroke:none"
             id="path538" /></g><g
           id="g540"
           transform="translate(1016.7474,469.6683)"><path
             d="m 0,0 -31.924,-168.377 -3.103,69.611 z"
             style="fill:#252119;fill-opacity:1;fill-rule:nonzero;stroke:none"
             id="path542" /></g><g
           id="g544"
           transform="translate(1017.0804,470.9984)"><path
             d="m 0,0 -35.25,-101.426 -53.539,11.972 z"
             style="fill:#2e2d29;fill-opacity:1;fill-rule:nonzero;stroke:none"
             id="path546" /></g><g
           id="g548"
           transform="translate(806.5814,650.681)"><path
             d="m 0,0 26.912,32.834 118.963,8.401 26.604,-35.471 -8.204,-21.061 -8.645,3.769 -33.255,-18.622 -72.937,-8.646 -41.457,25.051 -8.225,14.142 12.659,-2.17 4.434,-10.42 33.476,-20.174 65.979,7.681 37.33,17.148 5.986,3.548 5.099,11.971 -18.401,24.83 L 37.245,21.283 12.014,-2.809 Z"
             style="fill:#565759;fill-opacity:1;fill-rule:nonzero;stroke:none"
             id="path550" /></g><g
           id="g552"
           transform="translate(971.3002,658.6619)"><path
             d="m 0,0 -3.769,-3.104 -18.622,25.052 -101.536,-11.085 -22.39,-20.839 -4.435,3.103 23.278,20.175 L -18.4,24.83 C -18.4,24.83 -1.108,-0.222 0,0"
             style="fill:#0f0e0c;fill-opacity:1;fill-rule:nonzero;stroke:none"
             id="path554" /></g><g
           id="g556"
           transform="translate(946.2494,677.9495)"><path
             d="m 0,0 1.33,-9.755 -6.873,-0.443 -1.33,9.311 z"
             style="fill:#821e40;fill-opacity:1;fill-rule:nonzero;stroke:none"
             id="path558" /></g><g
           id="g560"
           transform="translate(946.9144,663.3177)"><path
             d="m 0,0 1.33,-9.755 -6.873,-0.443 -1.33,9.311 z"
             style="fill:#821e40;fill-opacity:1;fill-rule:nonzero;stroke:none"
             id="path562" /></g><g
           id="g564"
           transform="translate(934.4994,662.8743)"><path
             d="m 0,0 1.33,-9.755 -6.873,-0.443 -1.33,9.311 z"
             style="fill:#821e40;fill-opacity:1;fill-rule:nonzero;stroke:none"
             id="path566" /></g><g
           id="g568"
           transform="translate(922.306,660.8787)"><path
             d="m 0,0 1.33,-9.754 -6.872,-0.444 -1.331,9.311 z"
             style="fill:#821e40;fill-opacity:1;fill-rule:nonzero;stroke:none"
             id="path570" /></g><g
           id="g572"
           transform="translate(910.1127,659.992)"><path
             d="m 0,0 1.33,-9.754 -6.872,-0.444 -1.33,9.311 z"
             style="fill:#821e40;fill-opacity:1;fill-rule:nonzero;stroke:none"
             id="path574" /></g><g
           id="g576"
           transform="translate(897.476,659.327)"><path
             d="m 0,0 1.33,-9.754 -6.872,-0.444 -1.33,9.311 z"
             style="fill:#821e40;fill-opacity:1;fill-rule:nonzero;stroke:none"
             id="path578" /></g><g
           id="g580"
           transform="translate(884.1742,657.7752)"><path
             d="m 0,0 1.33,-9.754 -6.872,-0.444 -1.33,9.311 z"
             style="fill:#821e40;fill-opacity:1;fill-rule:nonzero;stroke:none"
             id="path582" /></g><g
           id="g584"
           transform="translate(873.0902,657.7752)"><path
             d="m 0,0 1.33,-9.754 -6.873,-0.444 -1.33,9.311 z"
             style="fill:#821e40;fill-opacity:1;fill-rule:nonzero;stroke:none"
             id="path586" /></g><g
           id="g588"
           transform="translate(859.7885,656.4451)"><path
             d="m 0,0 1.33,-9.754 -6.873,-0.444 -1.33,9.311 z"
             style="fill:#821e40;fill-opacity:1;fill-rule:nonzero;stroke:none"
             id="path590" /></g><g
           id="g592"
           transform="translate(848.0385,655.3367)"><path
             d="m 0,0 1.33,-9.755 -6.872,-0.443 -1.33,9.311 z"
             style="fill:#821e40;fill-opacity:1;fill-rule:nonzero;stroke:none"
             id="path594" /></g><g
           id="g596"
           transform="translate(936.2728,649.3509)"><path
             d="m 0,0 1.33,-6.786 -6.873,-0.308 -1.33,6.477 z"
             style="fill:#821e40;fill-opacity:1;fill-rule:nonzero;stroke:none"
             id="path598" /></g><g
           id="g600"
           transform="translate(923.4144,647.3558)"><path
             d="m 0,0 1.33,-6.786 -6.872,-0.308 -1.33,6.477 z"
             style="fill:#821e40;fill-opacity:1;fill-rule:nonzero;stroke:none"
             id="path602" /></g><g
           id="g604"
           transform="translate(910.9994,645.8035)"><path
             d="m 0,0 1.33,-6.786 -6.872,-0.308 -1.33,6.477 z"
             style="fill:#821e40;fill-opacity:1;fill-rule:nonzero;stroke:none"
             id="path606" /></g><g
           id="g608"
           transform="translate(897.6976,644.4734)"><path
             d="m 0,0 1.33,-6.786 -6.872,-0.308 -1.33,6.477 z"
             style="fill:#821e40;fill-opacity:1;fill-rule:nonzero;stroke:none"
             id="path610" /></g><g
           id="g612"
           transform="translate(885.9476,643.8084)"><path
             d="m 0,0 1.331,-6.786 -6.873,-0.308 -1.33,6.477 z"
             style="fill:#821e40;fill-opacity:1;fill-rule:nonzero;stroke:none"
             id="path614" /></g><g
           id="g616"
           transform="translate(873.5336,642.4783)"><path
             d="m 0,0 1.33,-6.786 -6.873,-0.308 -1.33,6.477 z"
             style="fill:#821e40;fill-opacity:1;fill-rule:nonzero;stroke:none"
             id="path618" /></g><g
           id="g620"
           transform="translate(862.0052,641.8133)"><path
             d="m 0,0 1.33,-6.786 -6.872,-0.308 -1.331,6.477 z"
             style="fill:#821e40;fill-opacity:1;fill-rule:nonzero;stroke:none"
             id="path622" /></g><g
           id="g624"
           transform="translate(849.8119,640.7049)"><path
             d="m 0,0 1.33,-6.786 -6.872,-0.308 -1.33,6.477 z"
             style="fill:#821e40;fill-opacity:1;fill-rule:nonzero;stroke:none"
             id="path626" /></g><g
           id="g628"
           transform="translate(838.2836,655.3367)"><path
             d="m 0,0 1.33,-6.786 -6.872,-0.308 -1.33,6.477 z"
             style="fill:#821e40;fill-opacity:1;fill-rule:nonzero;stroke:none"
             id="path630" /></g><g
           id="g632"
           transform="translate(828.7513,648.2425)"><path
             d="m 0,0 1.33,-6.786 -6.873,-0.308 -1.33,6.477 z"
             style="fill:#821e40;fill-opacity:1;fill-rule:nonzero;stroke:none"
             id="path634" /></g><g
           id="g636"
           transform="translate(839.1703,640.9266)"><path
             d="m 0,0 1.33,-6.786 -6.872,-0.308 -1.33,6.477 z"
             style="fill:#821e40;fill-opacity:1;fill-rule:nonzero;stroke:none"
             id="path638" /></g><g
           id="g640"
           transform="translate(859.3451,628.5115)"><path
             d="m 0,0 0.222,-7.316 -6.652,1.108 v 5.1 z"
             style="fill:#821e40;fill-opacity:1;fill-rule:nonzero;stroke:none"
             id="path642" /></g><g
           id="g644"
           transform="translate(869.764,629.6199)"><path
             d="m 0,0 0.222,-7.316 -6.651,1.108 v 5.1 z"
             style="fill:#821e40;fill-opacity:1;fill-rule:nonzero;stroke:none"
             id="path646" /></g><g
           id="g648"
           transform="translate(881.7357,630.7283)"><path
             d="m 0,0 0.222,-7.316 -6.651,1.109 v 5.099 z"
             style="fill:#821e40;fill-opacity:1;fill-rule:nonzero;stroke:none"
             id="path650" /></g><g
           id="g652"
           transform="translate(892.1556,631.1717)"><path
             d="m 0,0 0.222,-7.316 -6.652,1.109 v 5.099 z"
             style="fill:#821e40;fill-opacity:1;fill-rule:nonzero;stroke:none"
             id="path654" /></g><g
           id="g656"
           transform="translate(903.684,633.1673)"><path
             d="m 0,0 0.222,-7.316 -6.652,1.108 v 5.1 z"
             style="fill:#821e40;fill-opacity:1;fill-rule:nonzero;stroke:none"
             id="path658" /></g><g
           id="g660"
           transform="translate(918.9808,634.4974)"><path
             d="m 0,0 0.222,-7.316 -6.652,1.108 v 5.1 z"
             style="fill:#821e40;fill-opacity:1;fill-rule:nonzero;stroke:none"
             id="path662" /></g><g
           id="g664"
           transform="translate(929.3998,636.4925)"><path
             d="m 0,0 0.222,-7.316 -6.651,1.108 v 5.1 z"
             style="fill:#821e40;fill-opacity:1;fill-rule:nonzero;stroke:none"
             id="path666" /></g><g
           id="g668"
           transform="translate(934.056,677.0628)"><path
             d="m 0,0 1.33,-9.755 -6.873,-0.443 -1.33,9.311 z"
             style="fill:#821e40;fill-opacity:1;fill-rule:nonzero;stroke:none"
             id="path670" /></g><g
           id="g672"
           transform="translate(920.7543,675.5106)"><path
             d="m 0,0 1.33,-9.754 -6.873,-0.444 -1.33,9.311 z"
             style="fill:#821e40;fill-opacity:1;fill-rule:nonzero;stroke:none"
             id="path674" /></g><g
           id="g676"
           transform="translate(908.1176,674.1805)"><path
             d="m 0,0 1.33,-9.754 -6.872,-0.444 -1.33,9.311 z"
             style="fill:#821e40;fill-opacity:1;fill-rule:nonzero;stroke:none"
             id="path678" /></g><g
           id="g680"
           transform="translate(894.3724,673.0721)"><path
             d="m 0,0 1.33,-9.754 -6.872,-0.444 -1.33,9.311 z"
             style="fill:#821e40;fill-opacity:1;fill-rule:nonzero;stroke:none"
             id="path682" /></g><g
           id="g684"
           transform="translate(881.7357,671.742)"><path
             d="m 0,0 1.33,-9.754 -6.872,-0.444 -1.33,9.311 z"
             style="fill:#821e40;fill-opacity:1;fill-rule:nonzero;stroke:none"
             id="path686" /></g><g
           id="g688"
           transform="translate(870.4291,671.2986)"><path
             d="m 0,0 1.331,-9.755 -6.873,-0.443 -1.33,9.311 z"
             style="fill:#821e40;fill-opacity:1;fill-rule:nonzero;stroke:none"
             id="path690" /></g><g
           id="g692"
           transform="translate(859.3451,669.7469)"><path
             d="m 0,0 1.33,-9.755 -6.873,-0.443 -1.33,9.311 z"
             style="fill:#821e40;fill-opacity:1;fill-rule:nonzero;stroke:none"
             id="path694" /></g><g
           id="g696"
           transform="translate(737.4135,512.3441)"><path
             d="m 0,0 v -91.781 l 29.707,3.103 -7.316,32.257 L 19.25,0.2 Z"
             style="fill:#020001;fill-opacity:1;fill-rule:nonzero;stroke:none"
             id="path698" /></g></g></g></g></svg>
